<svg id="visual" viewBox="0 0 960 540" width="960" height="540" xmlns="http://www.w3.org/2000/svg" xmlns:xlink="http://www.w3.org/1999/xlink" version="1.1"><rect x="0" y="0" width="960" height="540" fill="#171717"></rect><g transform="translate(483.1196621862217 279.5581570275316)"><path d="M112.7 -135.3C140.9 -110.6 155.1 -70.2 162.5 -28.6C169.8 12.9 170.2 55.7 151.3 86.2C132.3 116.7 94 134.9 56.9 142.3C19.9 149.7 -16 146.2 -48 133.8C-80 121.3 -108 99.9 -132.5 70.3C-157.1 40.6 -178.3 2.7 -172.4 -30.4C-166.6 -63.5 -133.8 -91.9 -100.5 -115.7C-67.3 -139.5 -33.6 -158.8 4.3 -163.9C42.2 -169 84.4 -159.9 112.7 -135.3" fill="#cd2bc3"></path></g></svg>