<svg id="visual" viewBox="0 0 900 600" width="900" height="600" xmlns="http://www.w3.org/2000/svg" xmlns:xlink="http://www.w3.org/1999/xlink" version="1.1"><rect x="0" y="0" width="900" height="600" fill="#0e0b16"></rect><path d="M0 293L129 286L257 274L386 311L514 279L643 275L771 284L900 295L900 0L771 0L643 0L514 0L386 0L257 0L129 0L0 0Z" fill="#6e16f5"></path><path d="M0 263L129 218L257 245L386 231L514 239L643 226L771 243L900 234L900 0L771 0L643 0L514 0L386 0L257 0L129 0L0 0Z" fill="#7e1beb"></path><path d="M0 190L129 197L257 192L386 206L514 193L643 176L771 187L900 183L900 0L771 0L643 0L514 0L386 0L257 0L129 0L0 0Z" fill="#8b22e2"></path><path d="M0 132L129 164L257 162L386 131L514 153L643 132L771 140L900 163L900 0L771 0L643 0L514 0L386 0L257 0L129 0L0 0Z" fill="#942ada"></path><path d="M0 96L129 90L257 93L386 104L514 96L643 109L771 113L900 91L900 0L771 0L643 0L514 0L386 0L257 0L129 0L0 0Z" fill="#9c31d2"></path><path d="M0 54L129 51L257 55L386 65L514 65L643 49L771 66L900 53L900 0L771 0L643 0L514 0L386 0L257 0L129 0L0 0Z" fill="#a239ca"></path></svg>