<svg width="960" height="540" xmlns="http://www.w3.org/2000/svg"><path fill="#001220" d="M0 0h960v540H0z"/><path d="m0 407 22.8-17.3c22.9-17.4 68.5-52 114.2-60.9 45.7-8.8 91.3 8.2 137 5.2 45.7-3 91.3-26 137.2-37.7 45.8-11.6 91.8-12 137.6-10.5 45.9 1.5 91.5 4.9 137.2 6.4 45.7 1.5 91.3 1.1 137 12.3 45.7 11.2 91.3 33.8 114.2 45.2L960 361V0H0Z" fill="#fa7268"/><path d="m0 311 22.8-9.7c22.9-9.6 68.5-29 114.2-34.6 45.7-5.7 91.3 2.3 137-7.5 45.7-9.9 91.3-37.5 137.2-50 45.8-12.5 91.8-9.9 137.6 14.5C594.7 248 640.3 294 686 303.2c45.7 9.1 91.3-18.5 137-41.9 45.7-23.3 91.3-42.3 114.2-51.8L960 200V0H0Z" fill="#ef5f67"/><path d="m0 169 22.8 5.8c22.9 5.9 68.5 17.5 114.2 12.5s91.3-26.6 137-38.5c45.7-11.8 91.3-13.8 137.2.4 45.8 14.1 91.8 44.5 137.6 55.3 45.9 10.8 91.5 2.2 137.2 8.5 45.7 6.3 91.3 27.7 137 36.7 45.7 9 91.3 5.6 114.2 4L960 252V0H0Z" fill="#e34c67"/><path d="m0 124 22.8 4.2c22.9 4.1 68.5 12.5 114.2 15.5s91.3.6 137 4c45.7 3.3 91.3 12.3 137.2 20.1 45.8 7.9 91.8 14.5 137.6 17.4 45.9 2.8 91.5 1.8 137.2-9.4 45.7-11.1 91.3-32.5 137-33.5s91.3 18.4 114.2 28L960 180V0H0Z" fill="#d53867"/><path d="m0 67 22.8 3.2c22.9 3.1 68.5 9.5 114.2 13.5s91.3 5.6 137 8.6 91.3 7.4 137.2 7.2c45.8-.2 91.8-4.8 137.6-7.7 45.9-2.8 91.5-3.8 137.2-.6 45.7 3.1 91.3 10.5 137 1.8s91.3-33.3 114.2-45.7L960 35V0H0Z" fill="#c62368"/></svg>