<svg id="visual" viewBox="0 0 960 540" width="960" height="540" xmlns="http://www.w3.org/2000/svg" xmlns:xlink="http://www.w3.org/1999/xlink" version="1.1"><g stroke-width="1" stroke-linejoin="bevel"><path d="M514 271L514 280L517 274Z" fill="#6d20b0" stroke="#6d20b0"></path><path d="M514 280L540 284L517 274Z" fill="#792ad3" stroke="#792ad3"></path><path d="M517 274L557 216L514 271Z" fill="#7d30e5" stroke="#7d30e5"></path><path d="M540 284L573 265L517 274Z" fill="#6d20b0" stroke="#6d20b0"></path><path d="M573 265L557 216L517 274Z" fill="#671c9f" stroke="#671c9f"></path><path d="M461 207L449 218L514 271Z" fill="#7325c1" stroke="#7325c1"></path><path d="M514 271L449 218L514 280Z" fill="#6d20b0" stroke="#6d20b0"></path><path d="M557 216L461 207L514 271Z" fill="#60188f" stroke="#60188f"></path><path d="M479 389L573 342L514 280Z" fill="#410d53" stroke="#410d53"></path><path d="M514 280L573 342L540 284Z" fill="#671c9f" stroke="#671c9f"></path><path d="M540 284L573 342L573 265Z" fill="#59157f" stroke="#59157f"></path><path d="M394 321L457 373L514 280Z" fill="#7325c1" stroke="#7325c1"></path><path d="M642 291L604 203L573 265Z" fill="#7325c1" stroke="#7325c1"></path><path d="M573 265L604 203L557 216Z" fill="#490f61" stroke="#490f61"></path><path d="M557 216L566 147L461 207Z" fill="#60188f" stroke="#60188f"></path><path d="M457 373L479 389L514 280Z" fill="#490f61" stroke="#490f61"></path><path d="M449 218L394 321L514 280Z" fill="#410d53" stroke="#410d53"></path><path d="M604 203L574 164L557 216Z" fill="#7325c1" stroke="#7325c1"></path><path d="M573 342L642 291L573 265Z" fill="#380b46" stroke="#380b46"></path><path d="M449 218L382 310L394 321Z" fill="#511270" stroke="#511270"></path><path d="M603 388L633 337L573 342Z" fill="#792ad3" stroke="#792ad3"></path><path d="M573 342L633 337L642 291Z" fill="#511270" stroke="#511270"></path><path d="M455 416L476 409L479 389Z" fill="#671c9f" stroke="#671c9f"></path><path d="M520 446L603 388L573 342Z" fill="#671c9f" stroke="#671c9f"></path><path d="M455 416L479 389L457 373Z" fill="#410d53" stroke="#410d53"></path><path d="M455 416L457 373L384 414Z" fill="#6d20b0" stroke="#6d20b0"></path><path d="M619 133L566 147L574 164Z" fill="#511270" stroke="#511270"></path><path d="M574 164L566 147L557 216Z" fill="#792ad3" stroke="#792ad3"></path><path d="M520 446L573 342L479 389Z" fill="#511270" stroke="#511270"></path><path d="M511 105L448 145L461 207Z" fill="#671c9f" stroke="#671c9f"></path><path d="M461 207L418 150L449 218Z" fill="#7325c1" stroke="#7325c1"></path><path d="M449 218L352 263L382 310Z" fill="#7d30e5" stroke="#7d30e5"></path><path d="M384 414L457 373L394 321Z" fill="#6d20b0" stroke="#6d20b0"></path><path d="M476 409L520 446L479 389Z" fill="#792ad3" stroke="#792ad3"></path><path d="M448 145L418 150L461 207Z" fill="#792ad3" stroke="#792ad3"></path><path d="M682 283L666 229L642 291Z" fill="#7d30e5" stroke="#7d30e5"></path><path d="M642 291L666 229L604 203Z" fill="#60188f" stroke="#60188f"></path><path d="M604 203L619 133L574 164Z" fill="#410d53" stroke="#410d53"></path><path d="M350 181L352 263L449 218Z" fill="#511270" stroke="#511270"></path><path d="M666 229L664 213L604 203Z" fill="#7325c1" stroke="#7325c1"></path><path d="M755 300L682 283L748 345Z" fill="#7d30e5" stroke="#7d30e5"></path><path d="M633 337L682 283L642 291Z" fill="#59157f" stroke="#59157f"></path><path d="M666 229L712 179L664 213Z" fill="#490f61" stroke="#490f61"></path><path d="M552 70L511 105L566 147Z" fill="#671c9f" stroke="#671c9f"></path><path d="M566 147L511 105L461 207Z" fill="#490f61" stroke="#490f61"></path><path d="M403 80L363 141L418 150Z" fill="#7d30e5" stroke="#7d30e5"></path><path d="M511 474L520 446L476 409Z" fill="#511270" stroke="#511270"></path><path d="M664 213L619 133L604 203Z" fill="#60188f" stroke="#60188f"></path><path d="M520 446L588 441L603 388Z" fill="#671c9f" stroke="#671c9f"></path><path d="M603 388L664 436L633 337Z" fill="#410d53" stroke="#410d53"></path><path d="M334 183L350 181L363 141Z" fill="#6d20b0" stroke="#6d20b0"></path><path d="M418 150L350 181L449 218Z" fill="#792ad3" stroke="#792ad3"></path><path d="M338 392L394 321L382 310Z" fill="#7d30e5" stroke="#7d30e5"></path><path d="M338 392L384 414L394 321Z" fill="#792ad3" stroke="#792ad3"></path><path d="M455 416L511 474L476 409Z" fill="#490f61" stroke="#490f61"></path><path d="M397 479L511 474L455 416Z" fill="#6d20b0" stroke="#6d20b0"></path><path d="M520 446L570 467L588 441Z" fill="#7d30e5" stroke="#7d30e5"></path><path d="M511 474L570 467L520 446Z" fill="#410d53" stroke="#410d53"></path><path d="M363 141L350 181L418 150Z" fill="#792ad3" stroke="#792ad3"></path><path d="M350 181L334 183L352 263Z" fill="#59157f" stroke="#59157f"></path><path d="M352 263L312 328L382 310Z" fill="#60188f" stroke="#60188f"></path><path d="M403 80L418 150L448 145Z" fill="#490f61" stroke="#490f61"></path><path d="M334 183L309 272L352 263Z" fill="#671c9f" stroke="#671c9f"></path><path d="M619 133L591 84L566 147Z" fill="#671c9f" stroke="#671c9f"></path><path d="M511 105L403 80L448 145Z" fill="#671c9f" stroke="#671c9f"></path><path d="M309 272L312 328L352 263Z" fill="#380b46" stroke="#380b46"></path><path d="M591 84L552 70L566 147Z" fill="#671c9f" stroke="#671c9f"></path><path d="M312 328L338 392L382 310Z" fill="#380b46" stroke="#380b46"></path><path d="M312 328L330 392L338 392Z" fill="#671c9f" stroke="#671c9f"></path><path d="M338 392L361 442L384 414Z" fill="#6d20b0" stroke="#6d20b0"></path><path d="M384 414L397 479L455 416Z" fill="#410d53" stroke="#410d53"></path><path d="M623 489L664 436L588 441Z" fill="#59157f" stroke="#59157f"></path><path d="M588 441L664 436L603 388Z" fill="#6d20b0" stroke="#6d20b0"></path><path d="M755 241L712 179L666 229Z" fill="#60188f" stroke="#60188f"></path><path d="M664 213L712 179L619 133Z" fill="#6d20b0" stroke="#6d20b0"></path><path d="M619 133L658 59L591 84Z" fill="#380b46" stroke="#380b46"></path><path d="M755 241L666 229L682 283Z" fill="#6d20b0" stroke="#6d20b0"></path><path d="M505 41L403 80L511 105Z" fill="#792ad3" stroke="#792ad3"></path><path d="M273 151L264 205L334 183Z" fill="#490f61" stroke="#490f61"></path><path d="M330 392L361 442L338 392Z" fill="#410d53" stroke="#410d53"></path><path d="M361 442L397 479L384 414Z" fill="#60188f" stroke="#60188f"></path><path d="M477 0L505 41L564 0Z" fill="#60188f" stroke="#60188f"></path><path d="M552 70L505 41L511 105Z" fill="#6d20b0" stroke="#6d20b0"></path><path d="M583 540L623 489L570 467Z" fill="#511270" stroke="#511270"></path><path d="M570 467L623 489L588 441Z" fill="#792ad3" stroke="#792ad3"></path><path d="M532 540L570 467L511 474Z" fill="#7d30e5" stroke="#7d30e5"></path><path d="M748 345L682 283L633 337Z" fill="#7d30e5" stroke="#7d30e5"></path><path d="M755 300L755 241L682 283Z" fill="#380b46" stroke="#380b46"></path><path d="M664 436L748 345L633 337Z" fill="#490f61" stroke="#490f61"></path><path d="M746 409L748 345L664 436Z" fill="#410d53" stroke="#410d53"></path><path d="M747 110L675 85L712 179Z" fill="#671c9f" stroke="#671c9f"></path><path d="M712 179L675 85L619 133Z" fill="#490f61" stroke="#490f61"></path><path d="M567 0L564 0L552 70Z" fill="#7d30e5" stroke="#7d30e5"></path><path d="M334 183L264 205L309 272Z" fill="#511270" stroke="#511270"></path><path d="M309 272L246 291L312 328Z" fill="#490f61" stroke="#490f61"></path><path d="M215 379L283 438L330 392Z" fill="#410d53" stroke="#410d53"></path><path d="M273 151L334 183L363 141Z" fill="#511270" stroke="#511270"></path><path d="M675 85L658 59L619 133Z" fill="#6d20b0" stroke="#6d20b0"></path><path d="M411 540L516 540L511 474Z" fill="#792ad3" stroke="#792ad3"></path><path d="M516 540L532 540L511 474Z" fill="#7d30e5" stroke="#7d30e5"></path><path d="M583 540L647 506L623 489Z" fill="#511270" stroke="#511270"></path><path d="M623 489L647 506L664 436Z" fill="#792ad3" stroke="#792ad3"></path><path d="M264 205L246 291L309 272Z" fill="#6d20b0" stroke="#6d20b0"></path><path d="M330 392L283 438L361 442Z" fill="#511270" stroke="#511270"></path><path d="M796 252L765 183L755 241Z" fill="#511270" stroke="#511270"></path><path d="M755 241L765 183L712 179Z" fill="#7325c1" stroke="#7325c1"></path><path d="M675 85L710 0L658 59Z" fill="#380b46" stroke="#380b46"></path><path d="M753 480L746 409L664 436Z" fill="#792ad3" stroke="#792ad3"></path><path d="M834 296L796 252L755 300Z" fill="#7325c1" stroke="#7325c1"></path><path d="M755 300L796 252L755 241Z" fill="#490f61" stroke="#490f61"></path><path d="M303 83L273 151L363 141Z" fill="#6d20b0" stroke="#6d20b0"></path><path d="M264 205L206 214L246 291Z" fill="#60188f" stroke="#60188f"></path><path d="M532 540L583 540L570 467Z" fill="#60188f" stroke="#60188f"></path><path d="M753 480L755 403L746 409Z" fill="#671c9f" stroke="#671c9f"></path><path d="M746 409L755 403L748 345Z" fill="#380b46" stroke="#380b46"></path><path d="M564 0L505 41L552 70Z" fill="#7d30e5" stroke="#7d30e5"></path><path d="M505 41L477 0L403 80Z" fill="#410d53" stroke="#410d53"></path><path d="M403 80L303 83L363 141Z" fill="#7325c1" stroke="#7325c1"></path><path d="M273 151L249 184L264 205Z" fill="#410d53" stroke="#410d53"></path><path d="M567 0L552 70L591 84Z" fill="#7325c1" stroke="#7325c1"></path><path d="M636 0L567 0L591 84Z" fill="#671c9f" stroke="#671c9f"></path><path d="M215 379L330 392L312 328Z" fill="#59157f" stroke="#59157f"></path><path d="M361 442L375 540L397 479Z" fill="#59157f" stroke="#59157f"></path><path d="M397 479L411 540L511 474Z" fill="#410d53" stroke="#410d53"></path><path d="M375 540L411 540L397 479Z" fill="#490f61" stroke="#490f61"></path><path d="M792 350L755 300L748 345Z" fill="#511270" stroke="#511270"></path><path d="M343 25L303 83L403 80Z" fill="#511270" stroke="#511270"></path><path d="M273 151L206 120L249 184Z" fill="#380b46" stroke="#380b46"></path><path d="M820 132L747 110L765 183Z" fill="#490f61" stroke="#490f61"></path><path d="M765 183L747 110L712 179Z" fill="#59157f" stroke="#59157f"></path><path d="M658 59L636 0L591 84Z" fill="#6d20b0" stroke="#6d20b0"></path><path d="M755 403L792 350L748 345Z" fill="#59157f" stroke="#59157f"></path><path d="M477 0L407 0L403 80Z" fill="#6d20b0" stroke="#6d20b0"></path><path d="M295 0L284 88L303 83Z" fill="#6d20b0" stroke="#6d20b0"></path><path d="M303 83L284 88L273 151Z" fill="#792ad3" stroke="#792ad3"></path><path d="M285 540L375 540L361 442Z" fill="#380b46" stroke="#380b46"></path><path d="M872 406L805 340L792 350Z" fill="#792ad3" stroke="#792ad3"></path><path d="M792 350L805 340L755 300Z" fill="#511270" stroke="#511270"></path><path d="M710 0L636 0L658 59Z" fill="#7325c1" stroke="#7325c1"></path><path d="M364 0L343 25L403 80Z" fill="#60188f" stroke="#60188f"></path><path d="M583 540L661 540L647 506Z" fill="#7325c1" stroke="#7325c1"></path><path d="M647 506L753 480L664 436Z" fill="#490f61" stroke="#490f61"></path><path d="M755 403L872 406L792 350Z" fill="#511270" stroke="#511270"></path><path d="M255 455L264 457L283 438Z" fill="#6d20b0" stroke="#6d20b0"></path><path d="M283 438L285 540L361 442Z" fill="#7325c1" stroke="#7325c1"></path><path d="M206 120L206 214L249 184Z" fill="#410d53" stroke="#410d53"></path><path d="M249 184L206 214L264 205Z" fill="#380b46" stroke="#380b46"></path><path d="M224 435L255 455L283 438Z" fill="#380b46" stroke="#380b46"></path><path d="M407 0L364 0L403 80Z" fill="#7325c1" stroke="#7325c1"></path><path d="M226 35L206 120L284 88Z" fill="#7d30e5" stroke="#7d30e5"></path><path d="M215 379L312 328L246 291Z" fill="#59157f" stroke="#59157f"></path><path d="M264 457L285 540L283 438Z" fill="#6d20b0" stroke="#6d20b0"></path><path d="M196 333L215 379L246 291Z" fill="#671c9f" stroke="#671c9f"></path><path d="M686 540L753 480L647 506Z" fill="#59157f" stroke="#59157f"></path><path d="M661 540L686 540L647 506Z" fill="#59157f" stroke="#59157f"></path><path d="M146 268L196 333L246 291Z" fill="#59157f" stroke="#59157f"></path><path d="M854 236L824 195L796 252Z" fill="#511270" stroke="#511270"></path><path d="M796 252L824 195L765 183Z" fill="#410d53" stroke="#410d53"></path><path d="M896 298L834 296L891 386Z" fill="#671c9f" stroke="#671c9f"></path><path d="M805 340L834 296L755 300Z" fill="#490f61" stroke="#490f61"></path><path d="M215 379L224 435L283 438Z" fill="#490f61" stroke="#490f61"></path><path d="M214 511L285 540L264 457Z" fill="#511270" stroke="#511270"></path><path d="M153 448L224 435L215 379Z" fill="#490f61" stroke="#490f61"></path><path d="M802 97L757 48L747 110Z" fill="#60188f" stroke="#60188f"></path><path d="M747 110L757 48L675 85Z" fill="#410d53" stroke="#410d53"></path><path d="M757 48L710 0L675 85Z" fill="#380b46" stroke="#380b46"></path><path d="M824 195L820 132L765 183Z" fill="#7325c1" stroke="#7325c1"></path><path d="M886 157L820 132L824 195Z" fill="#7d30e5" stroke="#7d30e5"></path><path d="M820 132L802 97L747 110Z" fill="#7d30e5" stroke="#7d30e5"></path><path d="M295 0L303 83L343 25Z" fill="#60188f" stroke="#60188f"></path><path d="M284 88L206 120L273 151Z" fill="#6d20b0" stroke="#6d20b0"></path><path d="M206 214L146 268L246 291Z" fill="#511270" stroke="#511270"></path><path d="M834 296L854 236L796 252Z" fill="#671c9f" stroke="#671c9f"></path><path d="M686 540L769 507L753 480Z" fill="#60188f" stroke="#60188f"></path><path d="M862 442L872 406L755 403Z" fill="#59157f" stroke="#59157f"></path><path d="M834 296L896 298L854 236Z" fill="#7d30e5" stroke="#7d30e5"></path><path d="M214 511L264 457L255 455Z" fill="#410d53" stroke="#410d53"></path><path d="M364 0L295 0L343 25Z" fill="#792ad3" stroke="#792ad3"></path><path d="M118 242L146 268L206 214Z" fill="#380b46" stroke="#380b46"></path><path d="M196 333L152 343L215 379Z" fill="#6d20b0" stroke="#6d20b0"></path><path d="M142 285L152 343L196 333Z" fill="#792ad3" stroke="#792ad3"></path><path d="M224 435L214 511L255 455Z" fill="#671c9f" stroke="#671c9f"></path><path d="M146 268L142 285L196 333Z" fill="#792ad3" stroke="#792ad3"></path><path d="M817 48L757 48L802 97Z" fill="#7d30e5" stroke="#7d30e5"></path><path d="M817 48L765 0L757 48Z" fill="#671c9f" stroke="#671c9f"></path><path d="M757 48L765 0L710 0Z" fill="#7325c1" stroke="#7325c1"></path><path d="M295 0L226 35L284 88Z" fill="#7325c1" stroke="#7325c1"></path><path d="M206 120L155 120L206 214Z" fill="#511270" stroke="#511270"></path><path d="M686 540L782 540L769 507Z" fill="#410d53" stroke="#410d53"></path><path d="M862 442L755 403L753 480Z" fill="#7d30e5" stroke="#7d30e5"></path><path d="M872 88L802 97L820 132Z" fill="#511270" stroke="#511270"></path><path d="M872 88L817 48L802 97Z" fill="#7325c1" stroke="#7325c1"></path><path d="M153 448L214 511L224 435Z" fill="#380b46" stroke="#380b46"></path><path d="M862 442L753 480L769 507Z" fill="#792ad3" stroke="#792ad3"></path><path d="M891 386L834 296L805 340Z" fill="#60188f" stroke="#60188f"></path><path d="M854 236L886 157L824 195Z" fill="#6d20b0" stroke="#6d20b0"></path><path d="M214 511L231 540L285 540Z" fill="#6d20b0" stroke="#6d20b0"></path><path d="M876 500L862 442L769 507Z" fill="#490f61" stroke="#490f61"></path><path d="M142 285L130 344L152 343Z" fill="#792ad3" stroke="#792ad3"></path><path d="M152 343L153 448L215 379Z" fill="#490f61" stroke="#490f61"></path><path d="M167 52L155 120L206 120Z" fill="#671c9f" stroke="#671c9f"></path><path d="M146 268L118 242L142 285Z" fill="#511270" stroke="#511270"></path><path d="M142 285L73 272L130 344Z" fill="#60188f" stroke="#60188f"></path><path d="M917 271L886 157L854 236Z" fill="#792ad3" stroke="#792ad3"></path><path d="M872 406L891 386L805 340Z" fill="#671c9f" stroke="#671c9f"></path><path d="M960 390L891 386L872 406Z" fill="#792ad3" stroke="#792ad3"></path><path d="M155 120L118 242L206 214Z" fill="#6d20b0" stroke="#6d20b0"></path><path d="M115 436L153 448L152 343Z" fill="#7325c1" stroke="#7325c1"></path><path d="M214 511L154 540L231 540Z" fill="#511270" stroke="#511270"></path><path d="M226 35L167 52L206 120Z" fill="#7d30e5" stroke="#7d30e5"></path><path d="M295 0L220 0L226 35Z" fill="#7325c1" stroke="#7325c1"></path><path d="M896 298L917 271L854 236Z" fill="#380b46" stroke="#380b46"></path><path d="M960 272L917 271L960 308Z" fill="#671c9f" stroke="#671c9f"></path><path d="M886 157L872 88L820 132Z" fill="#6d20b0" stroke="#6d20b0"></path><path d="M817 48L861 0L765 0Z" fill="#410d53" stroke="#410d53"></path><path d="M852 31L872 88L881 0Z" fill="#60188f" stroke="#60188f"></path><path d="M194 0L167 52L226 35Z" fill="#490f61" stroke="#490f61"></path><path d="M155 120L82 208L118 242Z" fill="#490f61" stroke="#490f61"></path><path d="M872 88L852 31L817 48Z" fill="#60188f" stroke="#60188f"></path><path d="M220 0L194 0L226 35Z" fill="#792ad3" stroke="#792ad3"></path><path d="M782 540L844 540L769 507Z" fill="#59157f" stroke="#59157f"></path><path d="M862 442L960 390L872 406Z" fill="#6d20b0" stroke="#6d20b0"></path><path d="M844 540L876 500L769 507Z" fill="#490f61" stroke="#490f61"></path><path d="M960 308L917 271L896 298Z" fill="#6d20b0" stroke="#6d20b0"></path><path d="M130 344L115 436L152 343Z" fill="#410d53" stroke="#410d53"></path><path d="M153 448L154 540L214 511Z" fill="#59157f" stroke="#59157f"></path><path d="M89 386L115 436L130 344Z" fill="#792ad3" stroke="#792ad3"></path><path d="M46 142L82 208L155 120Z" fill="#7325c1" stroke="#7325c1"></path><path d="M65 387L89 386L130 344Z" fill="#7d30e5" stroke="#7d30e5"></path><path d="M116 43L155 120L167 52Z" fill="#7325c1" stroke="#7325c1"></path><path d="M73 272L142 285L118 242Z" fill="#671c9f" stroke="#671c9f"></path><path d="M82 208L73 272L118 242Z" fill="#792ad3" stroke="#792ad3"></path><path d="M933 96L872 88L886 157Z" fill="#511270" stroke="#511270"></path><path d="M881 0L861 0L852 31Z" fill="#7d30e5" stroke="#7d30e5"></path><path d="M852 31L861 0L817 48Z" fill="#671c9f" stroke="#671c9f"></path><path d="M82 208L68 272L73 272Z" fill="#380b46" stroke="#380b46"></path><path d="M73 272L65 387L130 344Z" fill="#410d53" stroke="#410d53"></path><path d="M82 467L153 448L115 436Z" fill="#380b46" stroke="#380b46"></path><path d="M105 540L154 540L153 448Z" fill="#60188f" stroke="#60188f"></path><path d="M960 308L896 298L960 342Z" fill="#671c9f" stroke="#671c9f"></path><path d="M917 271L960 148L886 157Z" fill="#410d53" stroke="#410d53"></path><path d="M960 342L896 298L891 386Z" fill="#59157f" stroke="#59157f"></path><path d="M960 390L960 342L891 386Z" fill="#6d20b0" stroke="#6d20b0"></path><path d="M960 148L933 96L886 157Z" fill="#490f61" stroke="#490f61"></path><path d="M913 540L906 510L876 500Z" fill="#490f61" stroke="#490f61"></path><path d="M876 500L906 510L862 442Z" fill="#7325c1" stroke="#7325c1"></path><path d="M124 0L116 43L167 52Z" fill="#511270" stroke="#511270"></path><path d="M0 203L0 270L68 272Z" fill="#490f61" stroke="#490f61"></path><path d="M933 96L881 0L872 88Z" fill="#60188f" stroke="#60188f"></path><path d="M68 272L65 387L73 272Z" fill="#671c9f" stroke="#671c9f"></path><path d="M89 386L65 387L115 436Z" fill="#671c9f" stroke="#671c9f"></path><path d="M960 502L960 390L862 442Z" fill="#671c9f" stroke="#671c9f"></path><path d="M960 272L960 148L917 271Z" fill="#511270" stroke="#511270"></path><path d="M65 387L82 467L115 436Z" fill="#410d53" stroke="#410d53"></path><path d="M194 0L124 0L167 52Z" fill="#6d20b0" stroke="#6d20b0"></path><path d="M116 43L64 95L155 120Z" fill="#792ad3" stroke="#792ad3"></path><path d="M960 148L960 107L933 96Z" fill="#6d20b0" stroke="#6d20b0"></path><path d="M933 96L960 71L881 0Z" fill="#410d53" stroke="#410d53"></path><path d="M844 540L913 540L876 500Z" fill="#7325c1" stroke="#7325c1"></path><path d="M906 510L960 502L862 442Z" fill="#7d30e5" stroke="#7d30e5"></path><path d="M80 0L64 95L116 43Z" fill="#59157f" stroke="#59157f"></path><path d="M68 272L0 319L65 387Z" fill="#792ad3" stroke="#792ad3"></path><path d="M53 113L46 142L155 120Z" fill="#410d53" stroke="#410d53"></path><path d="M82 467L105 540L153 448Z" fill="#792ad3" stroke="#792ad3"></path><path d="M64 95L53 113L155 120Z" fill="#671c9f" stroke="#671c9f"></path><path d="M960 107L960 71L933 96Z" fill="#511270" stroke="#511270"></path><path d="M65 387L52 464L82 467Z" fill="#6d20b0" stroke="#6d20b0"></path><path d="M82 467L61 540L105 540Z" fill="#380b46" stroke="#380b46"></path><path d="M0 454L52 464L65 387Z" fill="#60188f" stroke="#60188f"></path><path d="M913 540L960 502L906 510Z" fill="#410d53" stroke="#410d53"></path><path d="M0 203L82 208L46 142Z" fill="#792ad3" stroke="#792ad3"></path><path d="M0 203L68 272L82 208Z" fill="#7325c1" stroke="#7325c1"></path><path d="M124 0L80 0L116 43Z" fill="#511270" stroke="#511270"></path><path d="M0 40L0 143L53 113Z" fill="#490f61" stroke="#490f61"></path><path d="M0 143L0 203L46 142Z" fill="#59157f" stroke="#59157f"></path><path d="M0 270L0 319L68 272Z" fill="#7325c1" stroke="#7325c1"></path><path d="M0 319L0 342L65 387Z" fill="#6d20b0" stroke="#6d20b0"></path><path d="M0 143L46 142L53 113Z" fill="#490f61" stroke="#490f61"></path><path d="M913 540L960 540L960 502Z" fill="#7325c1" stroke="#7325c1"></path><path d="M0 540L61 540L52 464Z" fill="#6d20b0" stroke="#6d20b0"></path><path d="M52 464L61 540L82 467Z" fill="#6d20b0" stroke="#6d20b0"></path><path d="M0 342L0 383L65 387Z" fill="#490f61" stroke="#490f61"></path><path d="M960 71L960 0L881 0Z" fill="#410d53" stroke="#410d53"></path><path d="M0 40L53 113L64 95Z" fill="#6d20b0" stroke="#6d20b0"></path><path d="M0 383L0 454L65 387Z" fill="#380b46" stroke="#380b46"></path><path d="M80 0L0 40L64 95Z" fill="#671c9f" stroke="#671c9f"></path><path d="M0 454L0 540L52 464Z" fill="#671c9f" stroke="#671c9f"></path><path d="M80 0L0 0L0 40Z" fill="#410d53" stroke="#410d53"></path></g></svg>