<svg id="visual" viewBox="0 0 960 540" width="960" height="540" xmlns="http://www.w3.org/2000/svg" xmlns:xlink="http://www.w3.org/1999/xlink" version="1.1"><path d="M0 82L87 82L87 158L175 158L175 109L262 109L262 185L349 185L349 158L436 158L436 147L524 147L524 158L611 158L611 131L698 131L698 185L785 185L785 147L873 147L873 233L960 233L960 77L960 0L960 0L873 0L873 0L785 0L785 0L698 0L698 0L611 0L611 0L524 0L524 0L436 0L436 0L349 0L349 0L262 0L262 0L175 0L175 0L87 0L87 0L0 0Z" fill="#bd51f3"></path><path d="M0 179L87 179L87 222L175 222L175 201L262 201L262 287L349 287L349 239L436 239L436 190L524 190L524 222L611 222L611 222L698 222L698 260L785 260L785 244L873 244L873 271L960 271L960 179L960 75L960 231L873 231L873 145L785 145L785 183L698 183L698 129L611 129L611 156L524 156L524 145L436 145L436 156L349 156L349 183L262 183L262 107L175 107L175 156L87 156L87 80L0 80Z" fill="#ba34b9"></path><path d="M0 212L87 212L87 276L175 276L175 255L262 255L262 357L349 357L349 314L436 314L436 266L524 266L524 282L611 282L611 276L698 276L698 303L785 303L785 303L873 303L873 347L960 347L960 271L960 177L960 269L873 269L873 242L785 242L785 258L698 258L698 220L611 220L611 220L524 220L524 188L436 188L436 237L349 237L349 285L262 285L262 199L175 199L175 220L87 220L87 177L0 177Z" fill="#a81e86"></path><path d="M0 406L87 406L87 433L175 433L175 482L262 482L262 482L349 482L349 406L436 406L436 482L524 482L524 476L611 476L611 428L698 428L698 390L785 390L785 433L873 433L873 433L960 433L960 444L960 269L960 345L873 345L873 301L785 301L785 301L698 301L698 274L611 274L611 280L524 280L524 264L436 264L436 312L349 312L349 355L262 355L262 253L175 253L175 274L87 274L87 210L0 210Z" fill="#8e135c"></path><path d="M0 541L87 541L87 541L175 541L175 541L262 541L262 541L349 541L349 541L436 541L436 541L524 541L524 541L611 541L611 541L698 541L698 541L785 541L785 541L873 541L873 541L960 541L960 541L960 442L960 431L873 431L873 431L785 431L785 388L698 388L698 426L611 426L611 474L524 474L524 480L436 480L436 404L349 404L349 480L262 480L262 480L175 480L175 431L87 431L87 404L0 404Z" fill="#6e123a"></path></svg>